<svg width="97" height="96" viewBox="0 0 97 96" fill="none" xmlns="http://www.w3.org/2000/svg">
<path d="M66.3197 29.8197C67.1594 28.9874 68.293 28.5189 69.4753 28.5156C70.6577 28.5124 71.7938 28.9746 72.6381 29.8023C73.4823 30.63 73.9669 31.7568 73.9871 32.9389C74.0072 34.1211 73.5613 35.2637 72.7457 36.1197L48.7937 66.0597C48.3821 66.5031 47.8852 66.8589 47.3329 67.1059C46.7806 67.3529 46.1842 67.486 45.5792 67.4972C44.9743 67.5084 44.3733 67.3975 43.8123 67.1711C43.2512 66.9448 42.7415 66.6076 42.3137 66.1797L26.4437 50.3037C26.0016 49.8918 25.647 49.395 25.401 48.843C25.1551 48.291 25.0228 47.6951 25.0122 47.0909C25.0015 46.4866 25.1127 45.8865 25.339 45.3261C25.5653 44.7658 25.9022 44.2568 26.3295 43.8295C26.7568 43.4022 27.2658 43.0653 27.8261 42.839C28.3865 42.6127 28.9866 42.5015 29.5909 42.5122C30.1951 42.5228 30.791 42.6551 31.343 42.901C31.895 43.147 32.3918 43.5016 32.8037 43.9437L45.3677 56.5017L66.2057 29.9517C66.2429 29.9052 66.283 29.8612 66.3257 29.8197H66.3197Z" fill="#00AF54"/>
<rect x="1.3" y="0.8" width="94.4" height="94.4" rx="47.2" stroke="#00AF54" stroke-width="1.6"/>
</svg>
