<svg width="32" height="32" viewBox="0 0 32 32" fill="none" xmlns="http://www.w3.org/2000/svg">
<path d="M14.6667 24H17.3333C18.0667 24 18.6667 23.4 18.6667 22.6667C18.6667 21.9333 18.0667 21.3333 17.3333 21.3333H14.6667C13.9333 21.3333 13.3333 21.9333 13.3333 22.6667C13.3333 23.4 13.9333 24 14.6667 24ZM4 9.33333C4 10.0667 4.6 10.6667 5.33333 10.6667H26.6667C27.4 10.6667 28 10.0667 28 9.33333C28 8.6 27.4 8 26.6667 8H5.33333C4.6 8 4 8.6 4 9.33333ZM9.33333 17.3333H22.6667C23.4 17.3333 24 16.7333 24 16C24 15.2667 23.4 14.6667 22.6667 14.6667H9.33333C8.6 14.6667 8 15.2667 8 16C8 16.7333 8.6 17.3333 9.33333 17.3333Z" fill="#56BAB4"/>
</svg>
