<svg width="20" height="18" viewBox="0 0 20 18" fill="none" xmlns="http://www.w3.org/2000/svg">
<path d="M6.1 10.34L8.93 7.51L2.74 1.33C2.26 0.850003 1.43 0.980003 1.13 1.6C0.420002 3.09 0.680002 4.92 1.91 6.16L6.1 10.34ZM12.88 8.53C14.41 9.24 16.56 8.74 18.15 7.15C20.06 5.24 20.43 2.5 18.96 1.03C17.5 -0.429997 14.76 -0.0699967 12.84 1.84C11.25 3.43 10.75 5.58 11.46 7.11L2.4 16.17C2.01 16.56 2.01 17.19 2.4 17.58C2.79 17.97 3.42 17.97 3.81 17.58L10 11.41L16.18 17.59C16.57 17.98 17.2 17.98 17.59 17.59C17.98 17.2 17.98 16.57 17.59 16.18L11.41 10L12.88 8.53Z" fill="#56BAB4"/>
</svg>
