<svg width="24" height="24" viewBox="0 0 24 24" fill="none" xmlns="http://www.w3.org/2000/svg">
<path d="M22.4195 11.34L20.5595 9.22001L20.8195 6.41001C20.8695 5.91001 20.5295 5.45001 20.0495 5.34001L17.2895 4.71001L15.8495 2.28001C15.5895 1.85001 15.0595 1.67001 14.5995 1.87001L11.9995 3.00001L9.40953 1.89001C8.94953 1.69001 8.40953 1.87001 8.15953 2.30001L6.70953 4.72001L3.95953 5.34001C3.46953 5.45001 3.12953 5.90001 3.17953 6.41001L3.43953 9.21001L1.57953 11.34C1.24953 11.72 1.24953 12.28 1.57953 12.66L3.43953 14.78L3.17953 17.6C3.12953 18.1 3.46953 18.56 3.94953 18.67L6.70953 19.3L8.14953 21.72C8.40953 22.15 8.93953 22.33 9.40953 22.13L11.9995 21L14.5895 22.11C15.0495 22.31 15.5895 22.13 15.8395 21.7L17.2795 19.27L20.0395 18.64C20.5295 18.53 20.8595 18.07 20.8095 17.57L20.5495 14.76L22.4095 12.64C22.7495 12.28 22.7495 11.72 22.4195 11.34ZM12.9995 17H10.9995V15H12.9995V17ZM11.9995 13C11.4495 13 10.9995 12.55 10.9995 12V8.00001C10.9995 7.45001 11.4495 7.00001 11.9995 7.00001C12.5495 7.00001 12.9995 7.45001 12.9995 8.00001V12C12.9995 12.55 12.5495 13 11.9995 13Z" fill="#C8D3D3"/>
</svg>
