<svg xmlns="http://www.w3.org/2000/svg" width="24" height="24" viewBox="0 0 24 24">
  <path d="M19.875 10.125c-.828 0-1.5.672-1.5 1.5 0 .414.172.797.453 1.078l-2.266 2.266c-1.641-1.641-4.297-1.641-5.938 0s-1.641 4.297 0 5.938 4.297 1.641 5.938 0c.922-.922 1.422-2.156 1.422-3.469 0-.828-.672-1.5-1.5-1.5s-1.5.672-1.5 1.5c0 .703-.297 1.406-.797 1.906-1.172 1.172-3.078 1.172-4.25 0-1.172-1.172-1.172-3.078 0-4.25l2.266-2.266c.281.281.664.453 1.078.453.828 0 1.5-.672 1.5-1.5s-.672-1.5-1.5-1.5z"/>
  <path d="M23.25 12c0-6.328-5.148-11.484-11.484-11.484-6.344 0-11.484 5.156-11.484 11.484 0 6.344 5.14 11.484 11.484 11.484 6.336 0 11.484-5.14 11.484-11.484zm-2.25 0c0 5.297-4.297 9.594-9.594 9.594-5.297 0-9.594-4.297-9.594-9.594 0-5.297 4.297-9.594 9.594-9.594 5.297 0 9.594 4.297 9.594 9.594z"/>
</svg>
