<svg width="32" height="32" viewBox="0 0 32 32" fill="none" xmlns="http://www.w3.org/2000/svg">
<path d="M17.2401 3.53325C16.9734 3.26659 16.5601 3.26659 16.2934 3.53325L13.6134 6.21325H19.9068L17.2401 3.53325ZM16.3068 28.4666C16.5734 28.7333 16.9868 28.7333 17.2534 28.4666L19.8934 25.8266H13.6801L16.3068 28.4666ZM14.6401 23.6399C15.4401 23.6399 15.9868 22.8399 15.6934 22.0933L10.7201 9.37325C10.4801 8.75992 9.88011 8.35992 9.22678 8.35992C8.57345 8.35992 7.97345 8.75992 7.73345 9.37325L2.74678 22.0799C2.45345 22.8266 3.00011 23.6266 3.80011 23.6266C4.26678 23.6266 4.69345 23.3333 4.86678 22.8933L5.81345 20.3599H12.6268L13.5734 22.8933C13.7468 23.3466 14.1734 23.6399 14.6401 23.6399ZM6.62678 18.1866L9.21345 11.2799L11.8001 18.1866H6.62678ZM28.0668 21.5199H20.9601L28.5868 10.4666C29.2001 9.58658 28.5601 8.37325 27.4934 8.37325H18.8534C18.2668 8.37325 17.8001 8.85325 17.8001 9.43992V9.45325C17.8001 10.0399 18.2801 10.5199 18.8534 10.5199H25.6401L18.0001 21.5599C17.3868 22.4399 18.0268 23.6532 19.0934 23.6532H28.0534C28.6401 23.6532 29.1068 23.1733 29.1068 22.5999C29.1334 21.9999 28.6534 21.5199 28.0668 21.5199Z" fill="#56BAB4"/>
</svg>
