<svg width="24" height="24" viewBox="0 0 24 24" fill="none" xmlns="http://www.w3.org/2000/svg">
<path d="M17 10.75V9.08333C17 7.15813 15.5365 5.58582 13.6667 5.37545V4.5H14.0833C14.3136 4.5 14.5 4.31364 14.5 4.08333V2.41667C14.5 2.18636 14.3136 2 14.0833 2H9.91667C9.68636 2 9.5 2.18636 9.5 2.41667V4.08333C9.5 4.31364 9.68636 4.5 9.91667 4.5H10.3333V5.37545C8.46347 5.58582 7 7.15813 7 9.08333V10.75C7 10.8607 7.04395 10.9665 7.12207 11.0446L7.66081 11.5833L7.12207 12.1221C7.04395 12.2002 7 12.306 7 12.4167V15.75C7 15.8607 7.04395 15.9665 7.12207 16.0446L7.66081 16.5833L7.12207 17.1221C7.04395 17.2002 7 17.306 7 17.4167V20.3333C7 21.2525 7.74748 22 8.66667 22H15.3333C16.2525 22 17 21.2525 17 20.3333V17.4167C17 17.306 16.9561 17.2002 16.8779 17.1221L16.3392 16.5833L16.8779 16.0446C16.9561 15.9665 17 15.8607 17 15.75V12.4167C17 12.306 16.9561 12.2002 16.8779 12.1221L16.3392 11.5833L16.8779 11.0446C16.9561 10.9665 17 10.8607 17 10.75Z" fill="#BB4841"/>
</svg>
