<svg width="32" height="32" viewBox="0 0 32 32" fill="none" xmlns="http://www.w3.org/2000/svg">
<path d="M11.0666 29.2L8.99997 25.6667L4.86663 24.8334C4.62219 24.7889 4.41663 24.6556 4.24997 24.4334C4.0833 24.2112 4.02219 23.9778 4.06663 23.7334L4.5333 19.7334L1.89997 16.6667C1.72219 16.4889 1.6333 16.2667 1.6333 16C1.6333 15.7334 1.72219 15.5112 1.89997 15.3334L4.5333 12.3L4.06663 8.30005C4.02219 8.05561 4.0833 7.82227 4.24997 7.60005C4.41663 7.37783 4.62219 7.24449 4.86663 7.20005L8.99997 6.36672L11.0666 2.80005C11.2 2.57783 11.3889 2.42227 11.6333 2.33338C11.8777 2.24449 12.1222 2.2556 12.3666 2.36672L16 4.06672L19.6333 2.36672C19.8777 2.2556 20.1222 2.23894 20.3666 2.31672C20.6111 2.39449 20.8 2.54449 20.9333 2.76672L23.0333 6.36672L27.1333 7.20005C27.3777 7.24449 27.5833 7.37783 27.75 7.60005C27.9166 7.82227 27.9777 8.05561 27.9333 8.30005L27.4666 12.3L30.1 15.3334C30.2778 15.5112 30.3666 15.7334 30.3666 16C30.3666 16.2667 30.2778 16.4889 30.1 16.6667L27.4666 19.7334L27.9333 23.7334C27.9777 23.9778 27.9166 24.2112 27.75 24.4334C27.5833 24.6556 27.3777 24.7889 27.1333 24.8334L23.0333 25.6667L20.9333 29.2334C20.8 29.4556 20.6111 29.6056 20.3666 29.6834C20.1222 29.7612 19.8777 29.7445 19.6333 29.6334L16 27.9334L12.3666 29.6334C12.1222 29.7445 11.8777 29.7556 11.6333 29.6667C11.3889 29.5778 11.2 29.4223 11.0666 29.2Z" fill="#FA1940"/>
<path d="M15.7109 10.5781C16.6484 10.5781 17.4219 10.6953 18.0312 10.9297C18.6458 11.1589 19.1042 11.5104 19.4062 11.9844C19.7083 12.4583 19.8594 13.0625 19.8594 13.7969C19.8594 14.401 19.75 14.9062 19.5312 15.3125C19.3125 15.7135 19.026 16.0391 18.6719 16.2891C18.3177 16.5391 17.9401 16.7318 17.5391 16.8672L20.6719 22H19.125L16.3281 17.2344H13.9531V22H12.625V10.5781H15.7109ZM15.6328 11.7266H13.9531V16.1094H15.7656C16.6979 16.1094 17.3828 15.9193 17.8203 15.5391C18.263 15.1589 18.4844 14.599 18.4844 13.8594C18.4844 13.0833 18.25 12.5339 17.7812 12.2109C17.3177 11.888 16.6016 11.7266 15.6328 11.7266Z" fill="white"/>
</svg>
