<svg width="24" height="24" viewBox="0 0 24 24" fill="none" xmlns="http://www.w3.org/2000/svg">
<path d="M9.2 11.15H10.4C10.6621 11.15 10.8818 11.0613 11.0591 10.8841C11.2364 10.7068 11.325 10.4871 11.325 10.225V9.025C11.325 8.76292 11.2364 8.54323 11.0591 8.36595C10.8818 8.18865 10.6621 8.1 10.4 8.1H8.75C8.62333 8.1 8.5125 8.14167 8.4175 8.225C8.3225 8.30833 8.275 8.42007 8.275 8.56023V12.7648C8.275 12.9049 8.3225 13.0167 8.4175 13.1C8.5125 13.1833 8.62333 13.225 8.75 13.225C8.88333 13.225 8.99167 13.1775 9.075 13.0825C9.15833 12.9875 9.2 12.8767 9.2 12.75V11.15ZM9.2 10.225V9.025H10.4V10.225H9.2ZM14.525 13.225C14.775 13.225 14.9917 13.1363 15.175 12.9591C15.3583 12.7818 15.45 12.5621 15.45 12.3V9.025C15.45 8.76292 15.3583 8.54323 15.175 8.36595C14.9917 8.18865 14.775 8.1 14.525 8.1H12.9C12.7733 8.1 12.6625 8.14167 12.5675 8.225C12.4725 8.30833 12.425 8.4197 12.425 8.5591V12.7409C12.425 12.8803 12.4725 12.9958 12.5675 13.0875C12.6625 13.1792 12.7733 13.225 12.9 13.225H14.525ZM13.35 12.3V9.025H14.525V12.3H13.35ZM17.6 11.15H18.4C18.5333 11.15 18.6417 11.1025 18.725 11.0075C18.8083 10.9125 18.85 10.8017 18.85 10.675C18.85 10.5417 18.8083 10.4333 18.725 10.35C18.6417 10.2667 18.5333 10.225 18.4 10.225H17.6V9.025H18.4C18.5333 9.025 18.6417 8.9775 18.725 8.8825C18.8083 8.7875 18.85 8.67667 18.85 8.55C18.85 8.41667 18.8083 8.30833 18.725 8.225C18.6417 8.14167 18.5333 8.1 18.4 8.1H17.15C17.0233 8.1 16.9125 8.14167 16.8175 8.225C16.7225 8.30833 16.675 8.42007 16.675 8.56023V12.7648C16.675 12.9049 16.7225 13.0167 16.8175 13.1C16.9125 13.1833 17.0233 13.225 17.15 13.225C17.2833 13.225 17.3917 13.1775 17.475 13.0825C17.5583 12.9875 17.6 12.8767 17.6 12.75V11.15ZM6.5 19C6.1 19 5.75 18.85 5.45 18.55C5.15 18.25 5 17.9 5 17.5V3.5C5 3.1 5.15 2.75 5.45 2.45C5.75 2.15 6.1 2 6.5 2H20.5C20.9 2 21.25 2.15 21.55 2.45C21.85 2.75 22 3.1 22 3.5V17.5C22 17.9 21.85 18.25 21.55 18.55C21.25 18.85 20.9 19 20.5 19H6.5ZM3.5 22C3.1 22 2.75 21.85 2.45 21.55C2.15 21.25 2 20.9 2 20.5V5.75C2 5.5375 2.07229 5.35938 2.21688 5.21563C2.36148 5.07188 2.54064 5 2.75438 5C2.96813 5 3.14583 5.07188 3.2875 5.21563C3.42917 5.35938 3.5 5.5375 3.5 5.75V20.5H18.25C18.4625 20.5 18.6406 20.5723 18.7844 20.7169C18.9281 20.8615 19 21.0406 19 21.2544C19 21.4681 18.9281 21.6458 18.7844 21.7875C18.6406 21.9292 18.4625 22 18.25 22H3.5Z" fill="#C8D3D3"/>
</svg>
