<svg width="24" height="24" viewBox="0 0 24 24" fill="none" xmlns="http://www.w3.org/2000/svg">
<path d="M11.3 13.925V18.2C11.3 18.4167 11.3708 18.5958 11.5125 18.7375C11.6542 18.8792 11.8333 18.95 12.05 18.95C12.2667 18.95 12.4458 18.8792 12.5875 18.7375C12.7292 18.5958 12.8 18.4167 12.8 18.2V13.925L14.325 15.45C14.375 15.5 14.5 15.4833 14.7 15.4C14.9 15.3167 15.0875 15.2417 15.2625 15.175C15.4375 15.1083 15.5583 15.0792 15.625 15.0875C15.6917 15.0958 15.6083 15.2167 15.375 15.45C15.525 15.3 15.5958 15.125 15.5875 14.925C15.5792 14.725 15.5 14.55 15.35 14.4L12.525 11.65C12.4417 11.5667 12.3583 11.5083 12.275 11.475C12.1917 11.4417 12.1 11.425 12 11.425C11.9 11.425 11.8083 11.4417 11.725 11.475C11.6417 11.5083 11.5583 11.5667 11.475 11.65L8.675 14.45C8.525 14.6 8.45 14.775 8.45 14.975C8.45 15.175 8.525 15.35 8.675 15.5C8.825 15.65 9 15.725 9.2 15.725C9.4 15.725 9.575 15.65 9.725 15.5L11.3 13.925ZM5.5 22C5.1 22 4.75 21.85 4.45 21.55C4.15 21.25 4 20.9 4 20.5V3.5C4 3.1 4.15 2.75 4.45 2.45C4.75 2.15 5.1 2 5.5 2H13.9C14.1 2 14.2958 2.04167 14.4875 2.125C14.6792 2.20833 14.8417 2.31667 14.975 2.45L19.55 7.025C19.6833 7.15833 19.7917 7.32083 19.875 7.5125C19.9583 7.70417 20 7.9 20 8.1V20.5C20 20.9 19.85 21.25 19.55 21.55C19.25 21.85 18.9 22 18.5 22H5.5ZM13.775 7.4C13.775 7.61667 13.8458 7.79583 13.9875 7.9375C14.1292 8.07917 14.3083 8.15 14.525 8.15H18.5L13.775 3.5V7.4Z" fill="#C8D3D3"/>
</svg>
