<svg width="24" height="24" viewBox="0 0 24 24" fill="none" xmlns="http://www.w3.org/2000/svg">
<g clip-path="url(#clip0_4619_155908)">
<path d="M21.6297 8.6886L20.2901 8.06575L21.6294 7.44855L22.2406 6.10925L22.8634 7.44892L24.1971 8.06575L22.8634 8.6886L22.2406 10.0223L21.6297 8.6886ZM18.1368 3.52227L16.1433 2.5875L18.1368 1.65272L19.0656 -0.334778L20.0064 1.65272L21.9939 2.5875L20.0079 3.52377L19.0656 5.50977L18.1368 3.52227ZM8.86234 22.275C8.27992 22.275 7.78785 22.0692 7.38612 21.6576C6.9844 21.246 6.78354 20.7409 6.78354 20.1424H10.9471C10.9471 20.7409 10.7447 21.246 10.3398 21.6576C9.93489 22.0692 9.44241 22.275 8.86234 22.275ZM5.55637 18.5565C5.32615 18.5565 5.13762 18.4821 4.99077 18.3333C4.84392 18.1844 4.77049 17.9969 4.77049 17.7706C4.77049 17.5421 4.84392 17.354 4.99077 17.2063C5.13762 17.0586 5.32615 16.9848 5.55637 16.9848H12.1683C12.3985 16.9848 12.5871 17.0586 12.7339 17.2063C12.8808 17.3541 12.9542 17.5422 12.9542 17.7707C12.9542 17.9953 12.8808 18.1824 12.7339 18.3321C12.5871 18.4817 12.3985 18.5565 12.1683 18.5565H5.55637ZM4.89549 15.4239C3.76759 14.6913 2.87184 13.7745 2.20824 12.6736C1.54467 11.5727 1.21289 10.3313 1.21289 8.94945C1.21289 6.87726 1.96886 5.08431 3.48079 3.57057C4.99272 2.05686 6.78692 1.3 8.86339 1.3C10.9359 1.3 12.7287 2.05686 14.242 3.57057C15.7552 5.08431 16.5118 6.87726 16.5118 8.94945C16.5118 10.3313 16.1842 11.5727 15.5289 12.6736C14.8737 13.7745 13.9738 14.6913 12.8292 15.4239H4.89549Z" fill="#C8D3D3"/>
</g>
<defs>
<clipPath id="clip0_4619_155908">
<rect width="24" height="24" fill="white"/>
</clipPath>
</defs>
</svg>
