<svg width="120" height="120" viewBox="0 0 120 120" fill="none" xmlns="http://www.w3.org/2000/svg">
<g filter="url(#filter0_d_3939_196859)">
<circle cx="60" cy="40" r="20" fill="#B3BD35"/>
</g>
<path fill-rule="evenodd" clip-rule="evenodd" d="M65.4482 41.3183C67.0466 42.4033 68.1666 43.8733 68.1666 45.8333V49.3333H72.8332V45.8333C72.8332 43.29 68.6682 41.785 65.4482 41.3183Z" fill="white"/>
<path d="M56.5002 40C59.0775 40 61.1668 37.9107 61.1668 35.3333C61.1668 32.756 59.0775 30.6667 56.5002 30.6667C53.9228 30.6667 51.8335 32.756 51.8335 35.3333C51.8335 37.9107 53.9228 40 56.5002 40Z" fill="white"/>
<path fill-rule="evenodd" clip-rule="evenodd" d="M63.4999 40C66.0782 40 68.1666 37.9117 68.1666 35.3333C68.1666 32.755 66.0782 30.6667 63.4999 30.6667C62.9516 30.6667 62.4382 30.7833 61.9482 30.9467C62.9166 32.1483 63.4999 33.6767 63.4999 35.3333C63.4999 36.99 62.9166 38.5183 61.9482 39.72C62.4382 39.8833 62.9516 40 63.4999 40Z" fill="white"/>
<path fill-rule="evenodd" clip-rule="evenodd" d="M56.4998 41.1667C53.3848 41.1667 47.1665 42.73 47.1665 45.8333V49.3333H65.8332V45.8333C65.8332 42.73 59.6148 41.1667 56.4998 41.1667Z" fill="white"/>
<defs>
<filter id="filter0_d_3939_196859" x="0" y="0" width="120" height="120" filterUnits="userSpaceOnUse" color-interpolation-filters="sRGB">
<feFlood flood-opacity="0" result="BackgroundImageFix"/>
<feColorMatrix in="SourceAlpha" type="matrix" values="0 0 0 0 0 0 0 0 0 0 0 0 0 0 0 0 0 0 127 0" result="hardAlpha"/>
<feOffset dy="20"/>
<feGaussianBlur stdDeviation="20"/>
<feColorMatrix type="matrix" values="0 0 0 0 0.701961 0 0 0 0 0.741176 0 0 0 0 0.207843 0 0 0 0.5 0"/>
<feBlend mode="normal" in2="BackgroundImageFix" result="effect1_dropShadow_3939_196859"/>
<feBlend mode="normal" in="SourceGraphic" in2="effect1_dropShadow_3939_196859" result="shape"/>
</filter>
</defs>
</svg>
